<?xml version="1.0" encoding="utf-8"?>
<!-- Generator: Adobe Illustrator 23.0.1, SVG Export Plug-In . SVG Version: 6.00 Build 0)  -->
<svg version="1.1" id="Layer_1" xmlns="http://www.w3.org/2000/svg" xmlns:xlink="http://www.w3.org/1999/xlink" x="0px" y="0px"
	 viewBox="0 0 200 40" style="enable-background:new 0 0 200 40;" xml:space="preserve">
<style type="text/css">
	.st0{fill:#424242;}
</style>
<g>
	<g>
		<polygon class="st0" points="32.85,2.05 32.85,9.3 29.03,9.3 29.03,17.71 37.82,37.95 29.03,37.95 20.63,17.71 20.63,2.05 		"/>
		<polygon class="st0" points="4.97,2.05 4.97,9.3 8.79,9.3 8.79,17.71 0,37.95 8.79,37.95 17.19,17.71 17.19,2.05 		"/>
	</g>
	<g>
		<path class="st0" d="M63.44,10.32h5.12l8.15,19.29h-5.69l-1.4-3.42h-7.39l-1.37,3.42h-5.58L63.44,10.32z M68.09,22.06l-2.13-5.45
			l-2.16,5.45H68.09z"/>
		<path class="st0" d="M83.06,21.21V10.46h5.39V21.1c0,2.76,1.4,4.08,3.53,4.08c2.13,0,3.53-1.26,3.53-3.94V10.46h5.39v10.62
			c0,6.18-3.53,8.89-8.98,8.89S83.06,27.21,83.06,21.21z"/>
		<path class="st0" d="M108.87,20.09v-0.05c0-5.58,4.3-9.96,10.1-9.96c3.91,0,6.43,1.64,8.13,4l-4,3.09
			c-1.09-1.37-2.35-2.24-4.19-2.24c-2.68,0-4.57,2.27-4.57,5.06v0.05c0,2.87,1.89,5.12,4.57,5.12c2,0,3.17-0.93,4.32-2.33l4,2.85
			c-1.81,2.49-4.24,4.32-8.48,4.32C113.28,30,108.87,25.81,108.87,20.09z"/>
		<path class="st0" d="M139.66,15.11h-5.75v-4.65h16.8v4.65h-5.75v14.5h-5.31V15.11z"/>
		<path class="st0" d="M158.27,21.21V10.46h5.39V21.1c0,2.76,1.4,4.08,3.53,4.08c2.13,0,3.53-1.26,3.53-3.94V10.46h5.39v10.62
			c0,6.18-3.53,8.89-8.98,8.89C161.69,29.97,158.27,27.21,158.27,21.21z"/>
		<path class="st0" d="M183.28,26.77l2.96-3.53c1.89,1.51,4,2.3,6.21,2.3c1.42,0,2.19-0.49,2.19-1.31v-0.05
			c0-0.79-0.63-1.23-3.23-1.83c-4.08-0.93-7.22-2.08-7.22-6.02v-0.05c0-3.56,2.82-6.13,7.42-6.13c3.26,0,5.8,0.88,7.88,2.54
			l-2.65,3.75c-1.75-1.23-3.67-1.89-5.36-1.89c-1.29,0-1.92,0.55-1.92,1.23v0.05c0,0.88,0.66,1.26,3.31,1.86
			c4.41,0.96,7.14,2.38,7.14,5.97v0.05c0,3.91-3.09,6.24-7.74,6.24C188.86,29.94,185.63,28.87,183.28,26.77z"/>
	</g>
</g>
</svg>
